<?xml version="1.0" encoding="UTF-8"?>
<svg xmlns="http://www.w3.org/2000/svg" xmlns:xlink="http://www.w3.org/1999/xlink" width="25pt" height="25pt" viewBox="0 0 25 25" version="1.1">
<g id="surface1">
<path style=" stroke:none;fill-rule:evenodd;fill:rgb(100%,100%,100%);fill-opacity:1;" d="M 8.855469 14.582031 C 10.867188 14.582031 12.5 12.949219 12.5 10.9375 C 12.5 8.925781 10.867188 7.292969 8.855469 7.292969 C 6.839844 7.292969 5.207031 8.925781 5.207031 10.9375 C 5.207031 12.949219 6.839844 14.582031 8.855469 14.582031 Z M 8.855469 14.582031 "/>
<path style="fill:none;stroke-width:1;stroke-linecap:butt;stroke-linejoin:round;stroke:rgb(100%,100%,100%);stroke-opacity:1;stroke-miterlimit:4;" d="M 14.7075 7 C 16.6125 7 18.21375 7 19.5 7 C 21.43125 7 22.99875 5.4325 22.99875 3.50125 C 22.99875 1.56625 21.43125 -0.00125 19.5 -0.00125 C 17.56875 -0.00125 16.00125 1.56625 16.00125 3.50125 C 16.00125 4.7875 15.57 5.95375 14.7075 7 Z M 14.7075 7 " transform="matrix(1.041667,0,0,1.041667,0,2.083333)"/>
<path style=" stroke:none;fill-rule:evenodd;fill:rgb(100%,100%,100%);fill-opacity:1;" d="M 17.707031 23.957031 L 0 23.957031 C 0 20.257812 2.027344 17.054688 4.96875 15.53125 L 8.855469 19.269531 L 12.722656 15.523438 C 15.675781 17.042969 17.707031 20.25 17.707031 23.957031 Z M 17.707031 23.957031 "/>
</g>
</svg>
