<?xml version="1.0" encoding="UTF-8"?>
<svg xmlns="http://www.w3.org/2000/svg" xmlns:xlink="http://www.w3.org/1999/xlink" width="25pt" height="25pt" viewBox="0 0 25 25" version="1.1">
<g id="surface1">
<path style="fill:none;stroke-width:1;stroke-linecap:butt;stroke-linejoin:miter;stroke:rgb(100%,100%,100%);stroke-opacity:1;stroke-miterlimit:4;" d="M 25 14.5 L 27.575 14.5 L 27.575 9.5 " transform="matrix(0.78125,0,0,0.78125,0.78125,5.859375)"/>
<path style="fill:none;stroke-width:1;stroke-linecap:round;stroke-linejoin:round;stroke:rgb(100%,100%,100%);stroke-opacity:1;stroke-miterlimit:4;" d="M 9 14.5 L 19 14.5 " transform="matrix(0.78125,0,0,0.78125,0.78125,5.859375)"/>
<path style="fill:none;stroke-width:1;stroke-linecap:butt;stroke-linejoin:miter;stroke:rgb(100%,100%,100%);stroke-opacity:1;stroke-miterlimit:4;" d="M 28 0 L 8.81 0 L 5.31 5.63 L 0 7.66 L 0 14.225 L 3 14.225 " transform="matrix(0.78125,0,0,0.78125,0.78125,5.859375)"/>
<path style="fill:none;stroke-width:1;stroke-linecap:round;stroke-linejoin:round;stroke:rgb(100%,100%,100%);stroke-opacity:1;stroke-miterlimit:4;" d="M 9 14 C 9 15.655 7.655 17 6 17 C 4.345 17 3 15.655 3 14 C 3 12.345 4.345 11 6 11 C 7.655 11 9 12.345 9 14 Z M 9 14 " transform="matrix(0.78125,0,0,0.78125,0.78125,5.859375)"/>
<path style="fill:none;stroke-width:1;stroke-linecap:round;stroke-linejoin:round;stroke:rgb(100%,100%,100%);stroke-opacity:1;stroke-miterlimit:4;" d="M 25 14 C 25 15.655 23.655 17 22 17 C 20.345 17 19 15.655 19 14 C 19 12.345 20.345 11 22 11 C 23.655 11 25 12.345 25 14 Z M 25 14 " transform="matrix(0.78125,0,0,0.78125,0.78125,5.859375)"/>
<path style="fill:none;stroke-width:1;stroke-linecap:butt;stroke-linejoin:round;stroke:rgb(100%,100%,100%);stroke-opacity:1;stroke-miterlimit:4;" d="M 21 2.5 L 31 2.5 " transform="matrix(0.78125,0,0,0.78125,0.78125,5.859375)"/>
<path style="fill:none;stroke-width:1;stroke-linecap:butt;stroke-linejoin:round;stroke:rgb(100%,100%,100%);stroke-opacity:1;stroke-miterlimit:4;" d="M 20 5 L 30 5 " transform="matrix(0.78125,0,0,0.78125,0.78125,5.859375)"/>
<path style="fill:none;stroke-width:1;stroke-linecap:butt;stroke-linejoin:round;stroke:rgb(100%,100%,100%);stroke-opacity:1;stroke-miterlimit:4;" d="M 19 7.5 L 28 7.5 " transform="matrix(0.78125,0,0,0.78125,0.78125,5.859375)"/>
</g>
</svg>
