<?xml version="1.0" encoding="UTF-8"?>
<svg xmlns="http://www.w3.org/2000/svg" xmlns:xlink="http://www.w3.org/1999/xlink" width="25pt" height="25pt" viewBox="0 0 25 25" version="1.1">
<g id="surface1">
<path style="fill:none;stroke-width:0.9;stroke-linecap:butt;stroke-linejoin:miter;stroke:rgb(100%,100%,100%);stroke-opacity:1;stroke-miterlimit:4;" d="M 11.115665 13.628375 L 11.115665 23.602625 C 11.115665 23.618125 11.09784 23.6375 11.072885 23.625875 L 5.789557 21.50625 L 5.789557 11.613375 Z M 11.115665 13.628375 " transform="matrix(1.095723,0,0,1.008065,0,0)"/>
<path style="fill:none;stroke-width:0.9;stroke-linecap:butt;stroke-linejoin:miter;stroke:rgb(100%,100%,100%);stroke-opacity:1;stroke-miterlimit:4;" d="M 5.789557 11.613375 L 5.789557 21.50625 L 1.087325 19.623 L 1.087325 9.830875 Z M 5.789557 11.613375 " transform="matrix(1.095723,0,0,1.008065,0,0)"/>
<path style="fill:none;stroke-width:0.9;stroke-linecap:butt;stroke-linejoin:miter;stroke:rgb(100%,100%,100%);stroke-opacity:1;stroke-miterlimit:4;" d="M 16.441773 11.613375 L 16.441773 21.50625 L 11.158445 23.625875 C 11.13349 23.6375 11.115665 23.622 11.115665 23.602625 L 11.115665 13.628375 Z M 16.441773 11.613375 " transform="matrix(1.095723,0,0,1.008065,0,0)"/>
<path style="fill:none;stroke-width:0.9;stroke-linecap:butt;stroke-linejoin:miter;stroke:rgb(100%,100%,100%);stroke-opacity:1;stroke-miterlimit:4;" d="M 21.140441 9.830875 L 21.140441 19.623 L 16.441773 21.50625 L 16.441773 11.613375 Z M 21.140441 9.830875 " transform="matrix(1.095723,0,0,1.008065,0,0)"/>
<path style="fill:none;stroke-width:0.9;stroke-linecap:butt;stroke-linejoin:miter;stroke:rgb(100%,100%,100%);stroke-opacity:1;stroke-miterlimit:4;" d="M 5.789557 6.603 L 5.789557 11.613375 L 1.087325 9.830875 L 0.46345 9.5945 L 0.46345 4.58025 L 0.573965 4.537625 C 0.531185 4.553125 0.531185 4.607375 0.573965 4.62675 L 5.597048 6.521625 Z M 5.789557 6.603 " transform="matrix(1.095723,0,0,1.008065,0,0)"/>
<path style="fill:none;stroke-width:0.9;stroke-linecap:butt;stroke-linejoin:miter;stroke:rgb(100%,100%,100%);stroke-opacity:1;stroke-miterlimit:4;" d="M 11.15488 4.4175 L 5.789557 6.451875 L 5.789557 6.599125 L 5.597048 6.521625 L 0.573965 4.62675 C 0.531185 4.607375 0.531185 4.553125 0.573965 4.537625 L 6.192402 2.383125 L 6.195967 2.383125 Z M 11.15488 4.4175 " transform="matrix(1.095723,0,0,1.008065,0,0)"/>
<path style="fill:none;stroke-width:0.9;stroke-linecap:butt;stroke-linejoin:miter;stroke:rgb(100%,100%,100%);stroke-opacity:1;stroke-miterlimit:4;" d="M 21.76788 4.58025 L 21.76788 9.5945 L 21.140441 9.830875 L 16.441773 11.613375 L 16.441773 6.603 L 21.450596 4.700375 C 21.561111 4.6655 21.561111 4.506625 21.454161 4.460125 Z M 21.76788 4.58025 " transform="matrix(1.095723,0,0,1.008065,0,0)"/>
<path style="fill:none;stroke-width:0.9;stroke-linecap:butt;stroke-linejoin:miter;stroke:rgb(100%,100%,100%);stroke-opacity:1;stroke-miterlimit:4;" d="M 16.281348 2.476125 L 11.15488 4.4175 L 6.195967 2.383125 L 11.115665 0.496 Z M 16.281348 2.476125 " transform="matrix(1.095723,0,0,1.008065,0,0)"/>
<path style="fill:none;stroke-width:0.9;stroke-linecap:butt;stroke-linejoin:miter;stroke:rgb(100%,100%,100%);stroke-opacity:1;stroke-miterlimit:4;" d="M 11.15488 4.4175 L 5.789557 6.451875 L 5.789557 6.599125 L 5.597048 6.521625 L 0.573965 4.62675 C 0.531185 4.607375 0.531185 4.553125 0.573965 4.537625 L 6.192402 2.383125 L 6.195967 2.383125 Z M 11.15488 4.4175 " transform="matrix(1.095723,0,0,1.008065,0,0)"/>
<path style="fill:none;stroke-width:0.9;stroke-linecap:butt;stroke-linejoin:miter;stroke:rgb(100%,100%,100%);stroke-opacity:1;stroke-miterlimit:4;" d="M 21.450596 4.700375 L 16.441773 6.603 L 11.151315 4.4175 L 16.281348 2.476125 L 16.288478 2.476125 L 21.450596 4.45625 C 21.450596 4.45625 21.454161 4.45625 21.454161 4.460125 C 21.561111 4.506625 21.561111 4.6655 21.450596 4.700375 Z M 21.450596 4.700375 " transform="matrix(1.095723,0,0,1.008065,0,0)"/>
<path style="fill:none;stroke-width:0.9;stroke-linecap:butt;stroke-linejoin:miter;stroke:rgb(100%,100%,100%);stroke-opacity:1;stroke-miterlimit:4;" d="M 6.195967 2.383125 L 6.192402 2.383125 " transform="matrix(1.095723,0,0,1.008065,0,0)"/>
<path style="fill:none;stroke-width:0.9;stroke-linecap:butt;stroke-linejoin:miter;stroke:rgb(100%,100%,100%);stroke-opacity:1;stroke-miterlimit:4;" d="M 5.789557 6.45575 L 5.597048 6.521625 " transform="matrix(1.095723,0,0,1.008065,0,0)"/>
<path style="fill:none;stroke-width:0.9;stroke-linecap:butt;stroke-linejoin:miter;stroke:rgb(100%,100%,100%);stroke-opacity:1;stroke-miterlimit:4;" d="M 16.441773 6.603 L 16.441773 11.613375 L 11.115665 13.628375 L 5.789557 11.613375 L 5.789557 6.603 L 11.115665 8.618 Z M 16.441773 6.603 " transform="matrix(1.095723,0,0,1.008065,0,0)"/>
<path style="fill:none;stroke-width:0.9;stroke-linecap:butt;stroke-linejoin:miter;stroke:rgb(100%,100%,100%);stroke-opacity:1;stroke-miterlimit:4;" d="M 16.441773 6.603 L 11.115665 8.618 L 5.789557 6.603 L 5.789557 6.45575 L 11.15488 4.4175 Z M 16.441773 6.603 " transform="matrix(1.095723,0,0,1.008065,0,0)"/>
<path style="fill:none;stroke-width:0.9;stroke-linecap:butt;stroke-linejoin:miter;stroke:rgb(100%,100%,100%);stroke-opacity:1;stroke-miterlimit:4;" d="M 11.115665 13.628375 L 11.115665 8.65675 " transform="matrix(1.095723,0,0,1.008065,0,0)"/>
<path style="fill:none;stroke-width:0.9;stroke-linecap:butt;stroke-linejoin:miter;stroke:rgb(100%,100%,100%);stroke-opacity:1;stroke-miterlimit:4;" d="M 11.115665 23.64525 L 11.115665 23.602625 " transform="matrix(1.095723,0,0,1.008065,0,0)"/>
</g>
</svg>
