<?xml version="1.0" encoding="UTF-8"?>
<svg xmlns="http://www.w3.org/2000/svg" xmlns:xlink="http://www.w3.org/1999/xlink" width="25pt" height="25pt" viewBox="0 0 25 25" version="1.1">
<g id="surface1">
<path style="fill-rule:evenodd;fill:rgb(100%,100%,100%);fill-opacity:1;stroke-width:0.8;stroke-linecap:butt;stroke-linejoin:miter;stroke:rgb(100%,100%,100%);stroke-opacity:1;stroke-miterlimit:4;" d="M 16.549 5.0945 L 16.571 5.089 C 16.5765 5.089 16.9835 5.001 17.869 5.001 C 18.76 5.001 19.167 5.089 19.1725 5.089 L 19.189 5.0945 L 19.189 8.6695 L 22.874 8.6695 C 23.556 8.6695 24.1115 9.225 24.1115 9.907 L 24.1115 20.764 C 24.1115 21.446 23.556 22.0015 22.874 22.0015 L 17.7865 22.0015 C 17.1045 22.0015 16.549 21.446 16.549 20.764 Z M 22.874 8.7135 L 16.593 8.7135 L 16.5985 20.764 C 16.5985 21.4185 17.132 21.952 17.7865 21.952 L 22.874 21.952 C 23.534 21.952 24.0675 21.4185 24.0675 20.764 L 24.0675 9.907 C 24.0675 9.247 23.534 8.7135 22.874 8.7135 Z M 17.869 5.045 C 17.088 5.045 16.681 5.111 16.5985 5.1275 L 16.593 8.6695 L 19.145 8.6695 L 19.145 5.1275 C 19.057 5.111 18.65 5.045 17.869 5.045 Z M 17.869 5.045 " transform="matrix(0.710227,0,0,0.710227,3.551136,4.971591)"/>
<path style="fill-rule:evenodd;fill:rgb(100%,100%,100%);fill-opacity:1;stroke-width:0.8;stroke-linecap:butt;stroke-linejoin:miter;stroke:rgb(100%,100%,100%);stroke-opacity:1;stroke-miterlimit:4;" d="M 11.4945 7.9985 C 11.929 7.9985 12.2865 8.3615 12.2865 8.796 L 12.2865 10.171 C 12.2865 10.2975 12.391 10.402 12.5175 10.402 L 12.523 10.402 C 12.5725 10.402 12.6275 10.4075 12.677 10.4295 C 12.721 10.446 12.7705 10.4735 12.809 10.5065 C 12.853 10.5505 12.8805 10.611 12.8805 10.6715 L 12.8805 12.085 L 12.699 12.0795 L 12.699 13.1245 C 12.699 13.24 12.7595 13.35 12.8695 13.405 L 12.9795 13.471 C 13.1555 13.5645 13.2985 13.702 13.392 13.878 C 13.4965 14.076 13.5515 14.2905 13.5515 14.516 L 13.5515 21.3305 C 13.5515 21.7265 13.2545 22.0015 12.8255 22.0015 L 10.1525 22.0015 C 9.729 22.0015 9.432 21.7265 9.432 21.3305 L 9.432 14.516 C 9.432 14.2905 9.487 14.076 9.5915 13.878 C 9.685 13.702 9.8225 13.5645 9.9985 13.471 L 10.1195 13.405 C 10.2185 13.35 10.2845 13.24 10.2845 13.1245 L 10.2845 12.0795 L 10.0975 12.085 L 10.0975 10.6715 C 10.0975 10.611 10.125 10.5505 10.1745 10.5065 C 10.213 10.4735 10.257 10.446 10.3065 10.4295 C 10.356 10.4075 10.4055 10.402 10.455 10.402 L 10.466 10.402 C 10.5925 10.402 10.6915 10.2975 10.6915 10.171 L 10.6915 8.796 C 10.6915 8.3615 11.049 7.9985 11.4945 7.9985 Z M 12.6605 12.085 L 10.323 12.085 L 10.323 13.1245 C 10.323 13.2565 10.2515 13.3775 10.1305 13.4435 L 10.0205 13.4985 C 9.85 13.592 9.7125 13.7295 9.619 13.9 C 9.52 14.087 9.4705 14.3015 9.4705 14.516 L 9.4705 21.3305 C 9.4705 21.7045 9.751 21.963 10.1525 21.963 L 12.8255 21.963 C 13.2325 21.963 13.513 21.7045 13.513 21.3305 L 13.513 14.516 C 13.513 14.3015 13.4635 14.087 13.359 13.9 C 13.271 13.7295 13.1335 13.592 12.963 13.4985 L 12.8475 13.4435 C 12.732 13.3775 12.6605 13.2565 12.6605 13.1245 Z M 11.4945 8.037 C 11.071 8.037 10.73 8.378 10.73 8.796 L 10.73 10.171 C 10.73 10.3195 10.6145 10.435 10.466 10.435 L 10.455 10.435 C 10.411 10.435 10.3615 10.446 10.323 10.4625 C 10.2735 10.479 10.235 10.5065 10.1965 10.534 C 10.158 10.5725 10.136 10.622 10.136 10.6715 L 10.136 12.0465 L 12.8475 12.0465 L 12.8475 10.6715 C 12.8475 10.622 12.8255 10.5725 12.787 10.534 C 12.7485 10.5065 12.7045 10.479 12.666 10.4625 C 12.6165 10.446 12.5725 10.435 12.523 10.435 L 12.5175 10.435 C 12.369 10.435 12.2535 10.3195 12.2535 10.171 L 12.2535 8.796 C 12.2535 8.378 11.9125 8.037 11.4945 8.037 Z M 11.4945 8.037 " transform="matrix(0.710227,0,0,0.710227,3.551136,4.971591)"/>
<path style="fill-rule:evenodd;fill:rgb(100%,100%,100%);fill-opacity:1;stroke-width:0.8;stroke-linecap:butt;stroke-linejoin:miter;stroke:rgb(100%,100%,100%);stroke-opacity:1;stroke-miterlimit:4;" d="M 6.429 0.0015 L 6.429 1.371 L 4.0255 1.371 L 4.0255 2.9935 L 4.13 3.01 C 4.548 3.0595 4.8945 3.12 4.9 3.1255 L 4.922 3.131 L 4.922 5.2925 L 5.0925 5.3145 C 6.0715 5.441 6.374 5.6445 6.4125 5.6775 L 6.429 5.694 L 6.429 21.193 C 6.429 21.6385 6.066 22.0015 5.6205 22.0015 L 0.808 22.0015 C 0.3625 22.0015 -0.0005 21.6385 -0.0005 21.193 L -0.0005 5.694 L 0.0105 5.683 C 0.0215 5.672 0.324 5.4245 1.5065 5.2925 L 1.512 3.131 L 1.534 3.1255 C 1.5395 3.12 1.941 3.0485 2.403 2.9935 L 2.4085 1.371 L 1.842 1.371 L 1.842 0.0015 Z M 3.217 5.265 C 2.5845 5.265 2.0235 5.2925 1.5395 5.3475 C 0.4725 5.463 0.115 5.6775 0.06 5.7215 L 0.06 21.193 C 0.06 21.6055 0.3955 21.9465 0.808 21.9465 L 5.6205 21.9465 C 6.033 21.9465 6.3685 21.6055 6.3685 21.193 L 6.3685 5.7215 C 6.3135 5.6775 5.9615 5.463 4.889 5.3475 L 4.8065 5.342 L 4.592 5.3145 C 4.3885 5.3035 4.1685 5.287 3.9375 5.2815 L 3.5855 5.2705 Z M 3.5855 5.2155 L 3.679 5.2155 C 4.1135 5.2265 4.5095 5.2485 4.8615 5.287 L 4.8615 3.175 C 4.768 3.1585 4.405 3.0925 3.998 3.0485 C 3.8385 3.032 3.701 3.021 3.569 3.01 L 3.382 2.999 C 3.3215 2.9935 3.2665 2.9935 3.217 2.9935 C 3.063 2.9935 2.8815 3.0045 2.6835 3.021 C 2.601 3.032 2.5185 3.0375 2.436 3.0485 C 2.029 3.0925 1.6605 3.1585 1.567 3.175 L 1.567 5.287 C 1.919 5.2485 2.315 5.2265 2.744 5.2155 C 2.898 5.2155 3.052 5.21 3.217 5.21 Z M 2.678 2.9715 L 2.8265 2.955 C 2.8375 2.955 2.854 2.955 2.8595 2.955 C 2.8925 2.9495 2.92 2.9495 2.953 2.9495 C 3.041 2.944 3.118 2.944 3.1895 2.944 L 3.217 2.944 C 3.294 2.944 3.3765 2.944 3.47 2.944 C 3.558 2.955 3.657 2.955 3.756 2.9715 L 3.778 2.9715 L 3.9705 2.988 L 3.9705 1.3105 L 6.374 1.3105 L 6.374 0.0565 L 1.9025 0.0565 L 1.9025 1.3105 L 2.4635 1.3105 L 2.4635 2.988 L 2.6505 2.9715 Z M 2.678 2.9715 " transform="matrix(0.710227,0,0,0.710227,3.551136,4.971591)"/>
</g>
</svg>
